HIERARCHY
ROOT Hips
{
	OFFSET 0.000000 0.000000 0.000000 
	CHANNELS 6 Xposition Yposition Zposition Zrotation Yrotation Xrotation
	JOINT LeftUpLeg
	{
		OFFSET 1.363060 -1.794630 0.839290 
		CHANNELS 3 Zrotation Yrotation Xrotation
		JOINT LeftLeg
		{
			OFFSET 2.448110 -6.726130 0.000000 
			CHANNELS 3 Zrotation Yrotation Xrotation
			JOINT LeftFoot
			{
				OFFSET 2.562200 -7.039590 0.000000 
				CHANNELS 3 Zrotation Yrotation Xrotation
				JOINT LeftToeBase
				{
					OFFSET 0.157640 -0.433110 2.322550 
					CHANNELS 3 Zrotation Yrotation Xrotation
					End Site
					{
						OFFSET 0.000000 0.000000 0.000000 
					}
				}
			}
		}
	}
	JOINT RightUpLeg
	{
		OFFSET -1.305520 -1.794630 0.839290 
		CHANNELS 3 Zrotation Yrotation Xrotation
		JOINT RightLeg
		{
			OFFSET -2.542530 -6.985550 0.000000 
			CHANNELS 3 Zrotation Yrotation Xrotation
			JOINT RightFoot
			{
				OFFSET -2.568260 -7.056230 0.000000 
				CHANNELS 3 Zrotation Yrotation Xrotation
				JOINT RightToeBase
				{
					OFFSET -0.164730 -0.452590 2.363150 
					CHANNELS 3 Zrotation Yrotation Xrotation
					End Site
					{
						OFFSET 0.000000 0.000000 0.000000 
					}
				}
			}
		}
	}
	JOINT Spine
	{
		OFFSET 0.028270 2.035590 -0.193380 
		CHANNELS 3 Zrotation Yrotation Xrotation
		JOINT Spine1
		{
			OFFSET 0.056720 2.048850 -0.042750 
			CHANNELS 3 Zrotation Yrotation Xrotation
			JOINT Neck1
			{
				OFFSET -0.054170 1.746240 0.172020 
				CHANNELS 3 Zrotation Yrotation Xrotation
				JOINT Head
				{
					OFFSET 0.104070 1.761360 -0.123970 
					CHANNELS 3 Zrotation Yrotation Xrotation
					End Site
					{
						OFFSET 0.000000 0.000000 0.000000 
					}
				}
			}
			JOINT LeftArm
			{
				OFFSET 3.362410 1.200890 -0.311210 
				CHANNELS 3 Zrotation Yrotation Xrotation
				JOINT LeftForeArm
				{
					OFFSET 4.983000 -0.000000 -0.000000 
					CHANNELS 3 Zrotation Yrotation Xrotation
					JOINT LeftHand
					{
						OFFSET 3.483560 -0.000000 -0.000000 
						CHANNELS 3 Zrotation Yrotation Xrotation
						JOINT LeftHandIndex1
						{
							OFFSET 0.715260 -0.000000 -0.000000 
							CHANNELS 3 Zrotation Yrotation Xrotation
							End Site
							{
								OFFSET 0.000000 0.000000 0.000000 
							}
						}
					}
				}
			}
			JOINT RightArm
			{
				OFFSET -3.136600 1.374050 -0.404650 
				CHANNELS 3 Zrotation Yrotation Xrotation
				JOINT RightForeArm
				{
					OFFSET -5.241900 -0.000000 -0.000000 
					CHANNELS 3 Zrotation Yrotation Xrotation
					JOINT RightHand
					{
						OFFSET -3.444170 -0.000000 -0.000000 
						CHANNELS 3 Zrotation Yrotation Xrotation
						JOINT RightHandIndex1
						{
							OFFSET -0.622530 -0.000000 -0.000000 
							CHANNELS 3 Zrotation Yrotation Xrotation
							End Site
							{
								OFFSET 0.000000 0.000000 0.000000 
							}
						}
					}
				}
			}
		}
	}
}
MOTION
Frames: 9
Frame Time: 0.041667
0.335290 17.729995 0.209209 -8.621812 2.583124 0.300298 -1.978767 -5.567430 -26.576525 0.358198 7.987852 21.144316 -3.258930 13.449336 -2.483468 0.876300 -5.968000 -16.691600 30.187538 -3.548468 10.813835 0.444355 -3.131780 6.681322 4.001055 -19.101997 -4.472607 -0.092100 1.957400 -5.388000 2.872916 5.694878 -0.367549 -2.202489 2.865764 -0.990636 2.665277 -2.582285 12.745485 -2.336200 -0.838700 8.677900 -88.596263 17.653592 22.591913 23.198551 -33.544367 -6.363929 0.202094 0.541259 -15.344101 -7.125000 0.000000 0.000000 88.687872 -2.174743 20.617289 -24.970874 36.175982 -7.739093 0.156017 -0.698476 -11.815996 7.125000 0.000000 0.000000 
0.352054 17.722357 0.271506 -8.642472 2.559752 0.425166 -1.992933 -5.665942 -26.380659 0.352846 7.989182 21.155838 -3.182108 13.196077 -2.507407 0.882500 -5.988700 -16.751500 30.152830 -3.443287 10.792175 0.432950 -3.241273 6.984856 3.996361 -19.065126 -4.663160 -0.101900 2.058400 -5.667200 2.871955 5.730449 -0.399425 -2.188288 2.882444 -0.975602 2.708288 -2.602973 12.727473 -2.313800 -0.849800 8.679200 -88.658282 17.680161 22.415321 23.069877 -33.400473 -6.297766 0.203856 0.539524 -15.185643 -7.125000 0.000000 0.000000 88.712845 -2.145613 20.560789 -24.842245 36.046654 -7.669123 0.154561 -0.697899 -11.793732 7.125000 0.000000 0.000000 
0.368918 17.715413 0.334596 -8.655646 2.526468 0.562841 -2.015332 -5.749577 -26.204025 0.347774 7.989501 21.162141 -3.125221 13.008644 -2.534562 0.889800 -6.012600 -16.821100 30.114169 -3.330862 10.787586 0.422813 -3.334860 7.243568 3.994781 -19.044045 -4.827136 -0.111200 2.149900 -5.920200 2.865246 5.771859 -0.442328 -2.177271 2.902054 -0.974429 2.732588 -2.617900 12.690886 -2.301100 -0.859700 8.672500 -88.714366 17.700565 22.237948 22.927185 -33.240544 -6.224873 0.205333 0.538779 -15.031753 -7.125000 0.000000 0.000000 88.748696 -2.130307 20.493187 -24.709076 35.912443 -7.597167 0.152744 -0.697407 -11.756081 7.125000 0.000000 0.000000 
0.385683 17.710057 0.397884 -8.664208 2.486220 0.717555 -2.042059 -5.810617 -26.047136 0.335556 7.971748 21.108248 -3.096980 12.917860 -2.506477 0.905500 -6.064100 -16.970500 30.075637 -3.247523 10.905644 0.423842 -3.332441 7.231880 3.998187 -19.058004 -4.847298 -0.119100 2.224900 -6.127500 2.856528 5.817634 -0.491046 -2.163132 2.923241 -0.982248 2.779015 -2.648424 12.691535 -2.278700 -0.873900 8.682100 -88.764492 17.716387 22.075006 22.787197 -33.082688 -6.153569 0.206518 0.538382 -14.884750 -7.125000 0.000000 0.000000 88.785976 -2.114950 20.415248 -24.573624 35.775830 -7.524536 0.150819 -0.696872 -11.714055 7.125000 0.000000 0.000000 
0.402546 17.706982 0.461768 -8.649217 2.448367 0.883729 -2.091909 -5.851640 -25.913751 0.315701 7.935185 20.992680 -3.098817 12.930553 -2.410088 0.923300 -6.121900 -17.138400 30.012817 -3.205355 11.151680 0.436059 -3.232487 6.945933 4.006449 -19.107442 -4.712615 -0.126000 2.288600 -6.304000 2.835686 5.861201 -0.550949 -2.150725 2.943971 -1.000603 2.800160 -2.670689 12.678605 -2.271400 -0.884100 8.679800 -88.804011 17.746134 21.916163 22.649178 -32.925875 -6.083526 0.208008 0.537845 -14.762009 -7.125000 0.000000 0.000000 88.839047 -2.120053 20.325058 -24.433970 35.634191 -7.449819 0.148574 -0.696332 -11.657242 7.125000 0.000000 0.000000 
0.419112 17.706486 0.525751 -8.613687 2.423637 1.059576 -2.159761 -5.876795 -25.838300 0.297249 7.899357 20.876037 -3.119274 13.007447 -2.277350 0.941700 -6.180900 -17.310200 29.932043 -3.183554 11.419146 0.450350 -3.105546 6.584994 4.017681 -19.173658 -4.527240 -0.132400 2.345600 -6.461900 2.807623 5.902179 -0.626088 -2.133787 2.962927 -1.043424 2.825375 -2.694928 12.677447 -2.263700 -0.893500 8.679600 -88.835671 17.796312 21.765404 22.518817 -32.776341 -6.017599 0.209780 0.537416 -14.650983 -7.125000 0.000000 0.000000 88.901981 -2.141182 20.216053 -24.288379 35.486318 -7.372464 0.146276 -0.695854 -11.586393 7.125000 0.000000 0.000000 
0.434587 17.718786 0.589932 -8.536595 2.424957 1.242033 -2.268365 -5.879622 -25.790389 0.276419 7.858953 20.743911 -3.149198 13.119545 -2.109071 0.956400 -6.227400 -17.445700 29.807576 -3.186040 11.674876 0.464642 -2.968051 6.194458 4.030708 -19.250627 -4.301759 -0.138700 2.399900 -6.612300 2.770745 5.931342 -0.715546 -2.099965 2.975795 -1.115803 2.848874 -2.719029 12.659559 -2.256500 -0.903600 8.666800 -88.869337 17.863278 21.604514 22.390911 -32.628600 -5.953036 0.211562 0.536752 -14.545521 -7.125000 0.000000 0.000000 88.967967 -2.177220 20.098628 -24.134117 35.328568 -7.290796 0.143991 -0.695463 -11.525529 7.125000 0.000000 0.000000 
0.449864 17.722853 0.653121 -8.430711 2.464498 1.427145 -2.408753 -5.860585 -25.807156 0.257879 7.823039 20.626035 -3.174513 13.220516 -1.903885 0.964200 -6.252000 -17.517400 29.659419 -3.217152 11.885597 0.475978 -2.849080 5.857169 4.045913 -19.334095 -4.085355 -0.145900 2.461700 -6.783400 2.730474 5.943713 -0.808087 -2.047572 2.981320 -1.198721 2.866740 -2.730365 12.595958 -2.249800 -0.911400 8.635000 -88.913431 17.907208 21.412374 22.234353 -32.448313 -5.874850 0.214216 0.535099 -14.419439 -7.125000 0.000000 0.000000 89.035011 -2.203032 19.965338 -23.960512 35.149822 -7.199558 0.141473 -0.695071 -11.459696 7.125000 0.000000 0.000000 
0.464148 17.728210 0.715616 -8.280690 2.538255 1.609170 -2.602431 -5.793836 -25.849511 0.238967 7.788500 20.514130 -3.185067 13.276371 -1.673785 0.963000 -6.248400 -17.506800 29.469885 -3.264348 12.017580 0.482303 -2.774413 5.642745 4.063715 -19.422223 -3.894815 -0.155100 2.537600 -6.993900 2.686140 5.938568 -0.889046 -1.965420 2.979838 -1.281217 2.859877 -2.714517 12.476499 -2.251400 -0.912100 8.586500 -88.974719 17.889668 21.171068 22.033545 -32.218199 -5.775650 0.216842 0.534103 -14.261743 -7.125000 0.000000 0.000000 89.095605 -2.193246 19.824443 -23.764701 34.946757 -7.097391 0.138716 -0.694746 -11.392035 7.125000 0.000000 0.000000 
